<?xml version="1.0" encoding="UTF-8" standalone="no"?>
<!-- Created with Inkscape (http://www.inkscape.org/) -->
<svg
   xmlns:dc="http://purl.org/dc/elements/1.1/"
   xmlns:cc="http://creativecommons.org/ns#"
   xmlns:rdf="http://www.w3.org/1999/02/22-rdf-syntax-ns#"
   xmlns:svg="http://www.w3.org/2000/svg"
   xmlns="http://www.w3.org/2000/svg"
   xmlns:xlink="http://www.w3.org/1999/xlink"
   xmlns:sodipodi="http://sodipodi.sourceforge.net/DTD/sodipodi-0.dtd"
   xmlns:inkscape="http://www.inkscape.org/namespaces/inkscape"
   id="svg2"
   sodipodi:version="0.32"
   inkscape:version="0.46"
   width="712.05237"
   height="561.66199"
   version="1.0"
   sodipodi:docname="Sémhur.svg"
   inkscape:output_extension="org.inkscape.output.svg.inkscape"
   style="display:inline">
  <sodipodi:namedview
     inkscape:window-height="1001"
     inkscape:window-width="1280"
     inkscape:pageshadow="2"
     inkscape:pageopacity="0.0"
     guidetolerance="10.0"
     gridtolerance="10.0"
     objecttolerance="10.0"
     borderopacity="1.0"
     bordercolor="#666666"
     pagecolor="#ffffff"
     id="base"
     showgrid="false"
     inkscape:zoom="0.57597174"
     inkscape:cx="634.68808"
     inkscape:cy="274.38411"
     inkscape:window-x="0"
     inkscape:window-y="0"
     inkscape:current-layer="layer1"
     showborder="true"
     borderlayer="true"
     inkscape:showpageshadow="false" />
  <metadata
     id="metadata7">
    <rdf:RDF>
      <cc:Work
         rdf:about="">
        <dc:format>image/svg+xml</dc:format>
        <dc:type
           rdf:resource="http://purl.org/dc/dcmitype/StillImage" />
      </cc:Work>
    </rdf:RDF>
  </metadata>
  <defs
     id="defs5">
    <linearGradient
       id="linearGradient3357">
      <stop
         style="stop-color:#ffffff;stop-opacity:0;"
         offset="0"
         id="stop3359" />
      <stop
         style="stop-color:#000000;stop-opacity:1;"
         offset="1"
         id="stop3361" />
    </linearGradient>
    <linearGradient
       id="linearGradient3185">
      <stop
         id="stop3187"
         offset="0"
         style="stop-color:#000000;stop-opacity:1;" />
      <stop
         id="stop3189"
         offset="1"
         style="stop-color:#000000;stop-opacity:0;" />
    </linearGradient>
    <linearGradient
       inkscape:collect="always"
       xlink:href="#linearGradient3185"
       id="linearGradient3365"
       x1="-301.20523"
       y1="-6.3380547"
       x2="302.31918"
       y2="353.0546"
       gradientUnits="userSpaceOnUse" />
    <radialGradient
       inkscape:collect="always"
       xlink:href="#linearGradient3357"
       id="radialGradient3369"
       cx="-320.22192"
       cy="123.02995"
       fx="-320.22192"
       fy="123.02995"
       r="355.58429"
       gradientTransform="matrix(0.8449348,-1.2986012,1.0201613,0.6637678,140.40464,-175.70079)"
       gradientUnits="userSpaceOnUse" />
  </defs>
  <g
     transform="translate(302.00833,-9.8289785)"
     style="display:inline"
     inkscape:label="fond"
     id="layer1"
     inkscape:groupmode="layer">
    <path
       style="fill:#000000;stroke:none;stroke-width:5.00000048;stroke-miterlimit:4;stroke-dasharray:none;display:inline"
       d="M 81.220291,571.49096 C 81.212921,553.94454 81.474818,548.41072 81.052501,530.87061 C 80.20681,527.83638 80.040127,524.92912 81.621986,522.13886 C 82.590546,517.73294 79.902336,513.35333 76.653343,512.22113 C 74.607922,508.91915 80.304369,507.54422 81.920102,505.79635 C 86.840857,502.32916 89.169092,495.3878 92.319186,489.77523 C 94.592007,485.34496 96.896842,480.94205 99.214022,476.54985 C 99.17135,472.77429 99.532856,468.95208 99.061024,465.21596 C 97.652639,462.24646 92.355067,464.33528 92.609594,459.38154 C 94.137397,456.799 93.655228,454.36243 92.285164,451.82779 C 93.140378,448.66076 94.064484,445.16062 93.856167,441.49365 C 93.807612,437.41295 94.515936,433.18186 93.671776,429.20323 C 91.813185,427.27129 90.329784,424.87287 92.811303,422.48086 C 95.921259,414.9948 97.700864,406.7258 99.586678,398.63117 C 100.59303,394.21062 101.36208,389.68172 101.25299,385.05568 C 100.96855,383.00066 102.09576,376.72072 103.84622,380.61312 C 105.20317,384.59132 103.2819,388.82739 104.58163,392.70174 C 105.02294,394.71778 107.12316,400.8413 108.07721,396.08919 C 106.97211,393.00052 108.20447,387.31262 111.47236,389.93647 C 113.02356,393.03346 111.64436,396.9873 112.44465,400.40219 C 114.01015,403.84687 110.84537,406.47253 111.86654,410.1424 C 112.44149,413.91961 112.59526,419.10612 115.38375,421.26947 C 117.36234,424.62454 116.63066,418 115.96099,416.44113 C 115.96936,413.58448 114.36917,408.91575 116.3757,407.16905 C 118.50442,406.0835 122.27194,407.48638 123.04788,404.02177 C 123.69105,400.16882 122.82708,396.34812 122.1186,392.65087 C 121.59916,382.22527 121.90326,371.76376 121.82221,361.32139 C 120.77949,359.05539 118.71364,357.40459 118.11903,354.74578 C 118.94688,351.08368 120.19901,347.36861 121.37745,343.88509 C 123.71482,341.30321 124.47606,337.46192 125.05603,333.75129 C 126.1075,327.97047 127.35628,322.11321 126.96366,316.11796 C 127.74558,312.56354 130.07893,309.60628 130.47928,305.59972 C 133.05315,294.51507 135.39325,283.28735 136.73584,271.83819 C 136.8468,269.03777 135.67385,266.48563 136.95104,263.88882 C 136.0165,260.36706 138.99963,257.94448 136.69852,254.99363 C 134.96241,251.78861 138.67501,249.35978 137.43499,246.36423 C 138.0371,243.47162 136.70054,238.77959 139.23416,237.19999 C 141.61401,238.37013 139.57447,242.92581 141.29681,245.13426 C 139.89675,248.95348 142.85106,252.07623 141.37929,256.06761 C 141.05902,259.59877 140.51872,263.33248 141.56521,266.73348 C 140.6634,270.44757 141.87256,274.16784 142.30292,277.85158 C 143.65705,285.28982 145.14298,292.68839 146.32143,300.17564 C 147.07023,303.52607 147.63794,307.04387 148.98676,310.09276 C 152.59444,311.40133 150.59519,305.16722 150.63385,302.65927 C 152.05753,299.80575 151.27835,296.02785 150.58672,292.78863 C 152.35312,290.90907 151.25672,285.18473 154.27362,285.39659 C 156.84384,287.06487 156.02107,291.6789 157.99861,294.08214 C 156.59802,297.29249 158.01219,300.55079 158.55886,303.67429 C 156.70878,306.35712 158.04267,308.65424 160.28856,309.55176 C 159.90112,311.79259 160.64146,313.78816 162.31954,314.65308 C 163.33575,317.29005 164.32234,320.48756 165.42098,323.33167 C 167.56912,325.34509 166.69678,328.67869 164.97186,330.36877 C 165.05162,334.52818 165.64857,338.67016 165.61307,342.85029 C 165.95721,345.38254 169.58197,343.66859 169.21544,347.24813 C 171.3909,349.7411 174.68299,346.39177 177.19155,345.79384 C 181.15901,343.83341 185.32153,342.41421 189.09034,339.85513 C 191.30323,338.58877 189.77949,331.68622 193.35449,334.74289 C 194.53767,337.7957 197.05431,335.82811 198.4935,334.2736 C 199.27518,333.72993 199.68348,336.03229 200.31104,336.66324 C 201.43304,338.41816 202.64741,342.18309 204.7791,340.54455 C 208.03957,336.73172 210.20222,331.65456 212.95707,327.26989 C 214.60568,324.05209 217.39828,321.10686 217.0307,316.86027 C 216.70148,314.14956 217.23911,311.8534 218.90173,310.41997 C 217.35068,307.05768 219.03263,303.7513 219.46031,300.25069 C 219.50907,297.15425 220.34777,292.13804 223.56824,293.09511 C 225.40061,295.94362 224.69118,300.12411 224.91821,303.57502 C 224.00649,307.94117 227.35126,310.96318 226.83646,315.08291 C 226.75058,316.7333 226.27702,318.4824 226.36405,320.07853 C 229.38382,325.84359 232.22776,331.82171 235.59483,337.23308 C 236.0802,339.45052 237.5016,344.14637 238.99491,344.09131 C 238.49762,341.08827 235.31183,338.2286 237.11995,335.20592 C 237.43577,333.30599 237.35189,331.35184 237.43051,329.42271 C 240.21689,327.4699 243.04088,325.38914 246.25279,324.90759 C 249.14146,323.21436 247.21268,317.86888 247.72007,314.64065 C 247.42698,304.10424 247.3463,293.5202 246.43809,283.03856 C 244.65695,276.49825 242.52627,270.12281 239.90667,264.0629 C 240.37855,251.79842 241.22018,239.4817 240.36061,227.21965 C 239.88471,223.27632 238.36312,219.19444 239.76289,215.24433 C 241.30859,211.59168 243.18006,208.12914 244.27439,204.16764 C 246.29508,197.28629 248.28243,190.1103 248.32539,182.67623 C 247.6185,180.17944 245.88396,175.6892 249.22413,174.94705 C 253.46058,175.27009 249.97945,181.38598 250.8105,184.47989 C 251.76743,189.73069 252.20898,195.15432 253.52847,200.28381 C 255.21563,202.2619 255.20378,195.69158 255.73542,193.98392 C 258.49199,176.69842 262.35477,159.74692 265.39559,142.54838 C 266.32395,138.91005 264.1994,135.85655 265.6828,132.25568 C 265.69892,128.32514 265.71987,124.48004 266.07268,120.54046 C 266.992,114.20068 266.0821,107.66053 267.06372,101.3486 C 267.91084,99.129045 278.59672,104.38521 280.26226,101.30328 C 278.13732,106.54165 271.94878,107.72253 270.19391,108.33732 C 265.19728,109.67361 266.89468,115.83272 268.17034,119.39234 C 268.39617,123.09299 270.37548,126.77329 269.39539,130.32161 C 267.92548,133.56216 272.94015,135.88909 270.11324,139.05216 C 270.20252,143.39603 271.59157,147.523 272.24852,151.76693 C 274.43652,162.39225 275.95116,173.26666 278.69688,183.69021 C 278.96619,187.8518 283.73155,188.35235 283.4375,192.44983 C 281.14382,195.72512 282.521,200.43692 283.10905,204.21408 C 284.70666,212.5361 287.51563,220.41409 288.92358,228.79024 C 289.06792,232.17862 285.68923,234.50957 286.80902,238.18471 C 287.72743,241.69827 290.8849,242.45129 293.34603,243.11845 C 295.79565,245.26856 294.81274,249.98992 295.37729,253.26458 C 295.64384,257.27555 295.83416,261.49667 294.31947,265.17684 C 293.17389,269.64808 293.75338,274.50961 292.66804,278.97888 C 289.93854,283.69522 290.18082,289.95661 289.86563,295.54915 C 289.77601,303.49313 289.56832,311.46326 289.97949,319.39567 C 289.73807,323.59822 292.83128,325.68269 295.69403,325.59124 C 297.88126,326.01432 301.38378,325.61803 300.40546,329.84453 C 300.95758,333.67629 301.78217,337.61719 299.06626,340.38366 C 299.58556,345.03276 297.2701,348.44209 295.74622,352.33256 C 294.82049,355.76792 292.90247,358.79702 293.30661,362.64353 C 293.27609,374.14585 293.34785,385.65784 293.70802,397.15132 C 293.65056,401.14508 294.98995,404.77424 296.66664,408.02596 C 299.87324,414.85203 302.51309,422.11811 305.96856,428.74261 C 307.81128,432.06136 311.357,431.90128 314.18461,432.11555 C 317.24128,430.5184 313.00699,425.79881 312.81978,422.95495 C 311.46039,418.74681 309.96239,414.56094 308.72662,410.31193 C 308.53697,399.4998 308.71031,388.66549 308.13594,377.87334 C 308.00237,374.84897 304.45488,372.5872 307.29906,369.66818 C 309.54724,367.45502 312.00671,365.54384 314.09888,363.038 C 314.95582,362.22459 315.7051,361.05284 316.62624,360.45283 C 319.6451,360.20584 322.7629,360.5651 325.67847,359.41229 C 326.55295,354.47228 326.21886,349.29262 326.34584,344.24455 C 326.26359,335.15551 326.34517,326.01225 325.42661,316.98604 C 324.48552,313.7148 322.37594,311.19658 321.873,307.69073 C 320.09976,304.46294 320.82316,300.44033 319.88815,296.91105 C 319.18374,288.32883 319.40641,279.67634 319.24503,271.05856 C 318.11351,269.33083 316.23344,267.971 316.06785,265.55655 C 317.3837,262.18009 320.8166,261.49612 323.02504,259.29917 C 329.38508,254.39547 334.64796,247.55504 339.35189,240.26574 C 341.30339,237.20653 343.7674,234.65138 345.3587,231.23981 C 345.7735,228.58393 341.60031,224.38059 345.63882,223.2058 C 348.21603,222.80819 351.91016,224.11919 353.02363,219.89696 C 354.30604,216.16756 350.80282,213.31896 351.68654,209.66965 C 351.83219,208.39353 352.50065,207.51999 353.32861,207.07789 C 353.75161,197.59761 353.96959,188.79275 354.45964,190.25419 C 354.53115,190.46748 358.38692,191.64361 362.66253,194.54203 C 359.68867,193.84576 360.03476,197.49204 356.61331,195.86343 C 352.61352,198.24371 354.37096,206.45195 355.14521,206.78731 C 356.25736,206.99695 357.22362,207.93479 357.29917,209.65997 C 357.23816,213.53168 354.31853,217.70048 357.1507,221.15828 C 361.91682,228.6912 367.6825,235.10199 372.28251,242.82432 C 377.7045,250.58065 384.72948,255.99458 391.43744,261.68009 C 395.16328,264.34926 389.85332,267.14504 390.71792,270.85987 C 390.3419,279.36499 391.26501,288.00161 389.8061,296.38676 C 389.4411,300.32352 389.48033,304.47733 387.72365,307.93395 C 386.40607,311.31856 384.67063,314.51578 383.40783,317.8906 C 383.58514,329.58743 383.60715,341.29022 383.86642,352.98286 C 383.49974,356.87293 385.71123,360.37748 388.90869,359.48851 C 394.02603,359.62 399.27141,359.07777 404.27134,360.71781 C 407.53028,362.76274 402.81516,366.93721 404.18412,370.38694 C 404.48764,374.16387 411.59291,370.20454 409.73455,375.09942 C 407.4233,378.12049 404.12767,380.86382 404.08619,385.60902 C 403.67913,390.8787 404.63543,396.49972 402.73756,401.43357 C 400.06825,410.95802 397.63606,420.58783 395.11473,430.17769 C 394.84082,462.55457 394.61844,494.94593 395.65742,527.30638 C 396.05434,543.45623 396.8039,555.38265 397.7693,571.49096 L 81.220291,571.49096 z M 315.65797,471.1041 C 317.0333,468.5293 316.64523,464.86774 316.95675,461.82304 C 317.08014,455.21211 317.29357,448.47438 316.20076,441.97272 C 315.14155,437.86817 310.85807,437.68139 308.43636,439.83609 C 305.29219,441.99935 304.11284,446.70209 304.28207,451.03416 C 304.13614,457.34627 303.90209,463.72831 304.58425,469.99651 C 306.78837,471.7565 309.83101,471.08644 312.39472,471.28717 C 313.48346,471.2633 314.57182,471.20278 315.65797,471.1041 z M 107.94745,400.99561 C 108.54661,398.2091 106.07943,397.92669 106.72045,400.81111 C 106.90781,403.31381 107.97679,404.89695 107.94745,400.99561 z"
       id="path2480"
       sodipodi:nodetypes="cccccccccccccccccccccccccccccccccccccccccccccccccccccccccccccccccccccccccccccccccccccccccccccccccccccccccccccccccccccccccccccccccccccccccccccccccccccccccccccccccccccccc" />
  </g>
  <g
     transform="translate(302.00833,-9.8289785)"
     style="display:inline"
     inkscape:label="rond"
     id="layer2"
     inkscape:groupmode="layer">
    <path
       style="opacity:1;fill:url(#linearGradient3365);fill-opacity:1;stroke:none;stroke-width:5;stroke-linecap:round;stroke-linejoin:round;stroke-miterlimit:4;stroke-dasharray:none;stroke-dashoffset:0;stroke-opacity:1"
       d="M -160.93399,10.102515 C -238.36142,10.102515 -301.20522,72.946298 -301.20522,150.37374 C -301.20522,227.80117 -238.36141,290.64495 -160.93399,290.64497 C -149.56425,290.64497 -138.53333,289.27724 -127.94549,286.71999 C -139.20883,311.87738 -145.46771,339.76597 -145.46771,369.0978 C -145.46771,480.55894 -54.979421,571.00055 56.481731,571.00052 C 167.94287,571.00052 258.38443,480.55896 258.38445,369.0978 C 258.38445,340.16092 252.26141,312.63865 241.28276,287.74796 C 250.45568,289.63668 259.96278,290.64497 269.69212,290.64497 C 347.11955,290.64497 409.96336,227.80116 409.96336,150.37374 C 409.96336,72.946313 347.11955,10.102515 269.69212,10.102515 C 192.26469,10.102515 129.42089,72.946298 129.42089,150.37374 C 129.42089,161.32939 130.68598,172.00599 133.06552,182.24082 C 109.43731,172.53511 83.594947,167.19508 56.481731,167.19508 C 27.566741,167.19508 0.054456822,173.24035 -24.821373,184.20331 C -22.13458,173.3671 -20.662766,162.03688 -20.662766,150.37374 C -20.662766,72.946313 -83.506548,10.102515 -160.93399,10.102515 z"
       id="path3342" />
    <path
       id="path3367"
       d="M -160.93399,10.102515 C -238.36142,10.102515 -301.20522,72.946304 -301.20522,150.37374 C -301.20522,227.80117 -238.36141,290.64495 -160.93399,290.64497 C -149.56426,290.64497 -138.53333,289.27724 -127.94549,286.71999 C -139.20883,311.87738 -145.46771,339.76597 -145.46771,369.0978 C -145.46771,480.55894 -54.979416,571.00055 56.48173,571.00052 C 167.94288,571.00052 258.38444,480.55896 258.38446,369.0978 C 258.38446,340.16092 252.26142,312.63865 241.28277,287.74796 C 250.45569,289.63668 259.96279,290.64497 269.69213,290.64497 C 347.11956,290.64497 409.96337,227.80116 409.96337,150.37374 C 409.96337,72.946314 347.11956,10.102515 269.69213,10.102515 C 192.2647,10.102515 129.4209,72.946304 129.4209,150.37374 C 129.4209,161.32939 130.68599,172.00599 133.06553,182.24082 C 109.43732,172.53511 83.59495,167.19508 56.48173,167.19508 C 27.56674,167.19508 0.054465,173.24035 -24.821366,184.20331 C -22.134576,173.3671 -20.662766,162.03688 -20.662766,150.37374 C -20.662766,72.946314 -83.506546,10.102515 -160.93399,10.102515 z"
       style="opacity:1;fill:url(#radialGradient3369);fill-opacity:1;stroke:none;stroke-width:5;stroke-linecap:round;stroke-linejoin:round;stroke-miterlimit:4;stroke-dasharray:none;stroke-dashoffset:0;stroke-opacity:1" />
  </g>
  <g
     transform="translate(302.00833,-9.8289785)"
     style="display:inline"
     inkscape:label="lettre"
     id="layer3"
     inkscape:groupmode="layer">
    <path
       style="font-size:300px;font-style:normal;font-variant:normal;font-weight:normal;font-stretch:normal;text-align:center;line-height:100%;writing-mode:lr-tb;text-anchor:middle;fill:#ff000f;fill-opacity:0.94117647;stroke:none;stroke-width:1;stroke-linecap:round;stroke-linejoin:bevel;stroke-miterlimit:4;stroke-dashoffset:8.1;stroke-opacity:1;font-family:Alako-Bold;-inkscape-font-specification:Alako-Bold"
       d="M 61.09646,156.16462 C 61.096253,156.16497 53.962434,152.38743 39.694975,144.83195 C 25.427153,137.27723 4.7538879,130.25219 -22.324872,123.75683 C -29.188669,122.16194 -36.55687,120.70184 -44.429443,119.37652 C -52.302235,118.05199 -60.479271,116.80206 -68.960556,115.62672 C -72.997876,114.9917 -76.698966,114.80364 -80.063826,115.06256 C -83.428806,115.32228 -86.315942,115.77472 -88.725262,116.41991 C -94.043572,117.41277 -97.555336,119.53349 -99.260506,122.7821 C -100.96579,126.03151 -101.42869,129.91766 -100.64922,134.44056 C -100.00695,136.83809 -98.936236,139.23186 -97.437086,141.62188 C -95.938026,144.01267 -94.010512,146.39971 -91.654552,148.78301 C -89.289752,151.15155 -86.957212,153.42352 -84.656962,155.5989 C -82.356826,157.77502 -80.136916,159.65113 -77.997246,161.22725 C -71.877196,166.45654 -65.994886,170.78572 -60.35032,174.21481 C -54.705889,177.6446 -48.688717,180.86274 -42.298732,183.86927 C -35.905697,186.88871 -29.059563,189.99616 -21.760345,193.19165 C -14.461358,196.3878 -6.3977043,200.02761 2.4306668,204.11113 C 2.5353878,204.50281 2.6148578,204.79939 2.6690758,205.00088 C 2.7230048,205.203 3.0059118,205.45163 3.5178039,205.74677 C 3.6257989,206.15068 3.7060899,206.45033 3.7586669,206.64569 C 3.8109559,206.8417 3.8912469,207.14135 3.9995349,207.54462 C 4.6449769,209.95431 5.0943739,212.84228 5.3477209,216.20852 C 5.6007758,219.5754 5.3555909,223.0755 4.6121679,226.70885 C 4.1928809,231.55358 2.8168668,236.43487 0.48412682,241.35267 C -1.8489062,246.27107 -5.0958312,250.57875 -9.2566163,254.27575 C -11.344968,256.12019 -18.465026,254.80332 -30.61684,250.32519 C -42.768876,245.8476 -56.304501,239.81357 -71.223786,232.22307 C -77.213416,229.09612 -83.157556,225.74696 -89.056242,222.17562 C -94.955022,218.60487 -100.80386,214.80418 -106.60279,210.7735 C -112.91354,206.448 -118.85297,201.91783 -124.42112,197.18299 C -129.9893,192.44882 -134.4743,187.74524 -137.87612,183.07221 C -144.34636,174.92252 -149.40256,167.25546 -153.04475,160.07102 C -156.6869,152.88732 -159.36659,146.09093 -161.08381,139.68186 C -165.70123,122.44974 -164.12979,108.28122 -156.36946,97.176273 C -148.6091,86.072191 -139.03889,77.710654 -127.65877,72.091657 C -124.67074,70.426317 -121.60158,69.063214 -118.45128,68.00235 C -115.30104,66.942403 -112.31942,66.035345 -109.50642,65.281152 C -88.154222,59.992889 -66.485276,58.699276 -44.499457,61.400328 C -22.513847,64.102295 -2.4179132,68.165507 15.788387,73.589931 C 34.497169,79.32624 49.761497,85.01177 61.581419,90.646551 C 73.400936,96.282213 79.310794,99.099813 79.311015,99.099393 C 80.188211,97.580093 81.014607,95.857733 81.790218,93.932341 C 82.565383,92.007821 83.283638,89.881871 83.944991,87.554511 C 84.240221,87.043201 84.461809,86.659371 84.609765,86.403071 C 84.757268,86.147641 84.97886,85.763841 85.27454,85.251636 C 87.298902,79.990575 89.13035,75.206834 90.768894,70.900408 C 92.406974,66.594902 93.677688,64.537213 94.581039,64.727339 C 97.714931,65.17264 101.76166,66.234826 106.72123,67.913896 C 111.6803,69.593892 117.04659,71.59367 122.82011,73.913264 C 126.2629,75.560411 129.73687,77.310219 133.24203,79.162747 C 136.74663,81.016153 140.08063,83.026331 143.24402,85.193259 C 143.37758,87.307621 143.06629,89.753831 142.31016,92.531881 C 141.55345,95.310803 140.64287,97.917563 139.57843,100.35222 C 139.2827,100.8644 139.11436,101.44694 139.07341,102.09987 C 139.03191,102.75365 138.86357,103.33621 138.5684,103.84752 C 137.02957,107.6946 135.65968,111.38793 134.45871,114.9275 C 133.25719,118.4679 132.97936,121.44258 133.62523,123.85155 C 133.7331,124.25555 133.81339,124.55521 133.8661,124.75048 C 133.91826,124.94657 134.14627,124.99034 134.55015,124.88178 C 134.65802,125.28579 134.83697,125.56227 135.087,125.71124 C 135.33648,125.86101 135.51543,126.13749 135.62386,126.5407 C 139.29516,128.99171 146.16585,133.37719 156.23597,139.69721 C 166.30549,146.01797 177.30605,153.80618 189.23769,163.06182 C 201.88447,173.42412 214.46473,185.51791 226.97851,199.3432 C 239.49156,213.16915 248.95337,228.032 255.36396,243.93181 C 257.44644,248.52561 259.20651,253.10074 260.64418,257.65723 C 262.08104,262.21424 263.38956,266.69409 264.56972,271.09674 C 273.80419,305.56203 274.07303,333.4109 265.37625,354.64348 C 256.67866,375.87639 245.49448,393.04992 231.8237,406.16414 C 229.43966,408.52016 226.90713,410.69966 224.22611,412.70265 C 221.54436,414.70586 218.96551,416.68805 216.48956,418.6492 C 209.32471,424.00342 199.0169,429.23306 185.56608,434.3381 C 172.11461,439.44332 157.57387,444.08997 141.94381,448.27803 C 139.14278,449.02856 136.23807,449.80687 133.22969,450.61297 C 130.22076,451.41921 127.31606,452.19752 124.51559,452.9479 C 111.98118,455.8739 99.696484,458.52001 87.661458,460.88616 C 75.625982,463.25247 64.689216,465.32763 54.851149,467.11168 C 42.220894,469.6308 31.988787,471.51062 24.154818,472.7511 C 16.320519,473.99172 12.403457,474.61199 12.403592,474.61193 C 9.3072535,475.87418 5.6619608,477.49653 1.4677328,479.47897 C -2.7267952,481.46149 -7.5165783,483.60679 -12.90164,485.91487 C -19.392902,488.93881 -26.539644,491.92539 -34.341845,494.87458 C -42.144286,497.82384 -50.454475,500.47985 -59.272452,502.84262 C -62.880466,503.80938 -66.488416,504.77613 -70.096286,505.74286 C -73.704306,506.70962 -77.561996,507.52701 -81.669396,508.195 C -87.092572,508.79609 -92.772402,509.24638 -98.708876,509.54587 C -104.64543,509.84539 -110.48746,509.69027 -116.23499,509.08053 C -124.99635,508.42631 -131.84553,506.50599 -136.78258,503.31955 C -141.71966,500.13316 -145.22963,496.24321 -147.3125,491.64966 C -147.82424,491.35424 -148.16123,490.90381 -148.32345,490.29838 C -148.48566,489.69303 -148.67327,488.99283 -148.88629,488.19784 C -150.92792,480.57838 -149.70084,472.7319 -145.20504,464.6584 C -140.70923,456.585 -134.67056,450.67394 -127.089,446.92518 C -124.10094,445.25947 -121.058,443.79852 -117.96014,442.54235 C -114.86234,441.28635 -111.70512,440.22736 -108.48853,439.3654 C -106.99453,438.53258 -105.44643,437.90147 -103.84421,437.47209 C -102.24208,437.04287 -100.63991,436.61357 -99.037696,436.18419 C -97.435566,435.75497 -95.833396,435.32567 -94.231172,434.89629 C -92.629042,434.46707 -90.972802,434.23957 -89.262442,434.21378 C -81.941736,432.67175 -74.566086,431.3345 -67.135496,430.20199 C -59.705016,429.06969 -52.475468,427.9944 -45.4468,426.97617 C -36.603135,426.32378 -28.341107,425.50604 -20.660686,424.52288 C -12.980529,423.53995 -6.5353033,422.35042 -1.3250542,420.95427 C 1.0841708,420.30878 3.1367708,419.5425 4.8327449,418.65541 C 6.5284345,417.76855 7.8691125,416.76699 8.8548265,415.65075 C 13.285366,409.73154 18.350571,398.16942 24.050451,380.96437 C 29.750023,363.75961 35.030755,344.19605 39.892686,322.27361 C 41.783243,314.89838 43.566663,307.12242 45.242937,298.94566 C 46.918845,290.76938 48.444749,282.83956 49.82066,275.1562 C 54.443501,250.72892 57.931012,227.67729 60.283197,206.00119 C 62.634979,184.32575 62.906061,167.71356 61.09646,156.16462 L 61.09646,156.16462 z M 118.71554,188.40751 C 116.28655,217.8447 113.35658,244.18792 109.92563,267.43723 C 106.49418,290.68706 102.5177,311.5102 97.996161,329.90674 C 94.430726,345.465 90.490307,359.6227 86.174889,372.37988 C 81.859006,385.13733 77.131384,397.1399 71.991997,408.38756 C 73.190356,408.06652 75.317952,407.60459 78.374787,407.00175 C 81.431178,406.39912 85.019328,405.76211 89.139249,405.0907 C 92.855104,404.52767 97.243524,403.67297 102.30452,402.52655 C 107.36501,401.38038 112.70225,400.05515 118.31622,398.55082 C 123.52607,397.15491 128.81087,395.63398 134.17063,393.98805 C 139.52984,392.34238 144.90218,390.36543 150.28767,388.05718 C 165.67901,381.36389 179.44277,372.20313 191.57901,360.57488 C 203.71458,348.94698 210.27455,333.76621 211.25895,315.03257 C 211.79812,310.58867 211.72917,306.30759 211.05211,302.1893 C 210.37436,298.07147 209.70165,293.95872 209.03399,289.85103 C 208.27991,287.0383 207.42691,284.25847 206.475,281.51156 C 205.5224,278.76514 204.27191,276.09182 202.72356,273.49161 C 197.49604,262.00689 190.39105,251.13326 181.40853,240.87062 C 172.42537,230.60857 163.44171,221.52949 154.45752,213.63336 C 147.09733,207.00662 140.16195,201.56029 133.65136,197.29435 C 127.14021,193.02903 122.16162,190.06677 118.71554,188.40751 L 118.71554,188.40751 z"
       id="text3172" />
  </g>
</svg>
